<?xml version="1.0" encoding="UTF-8" standalone="no"?>
<!-- Created with Inkscape (http://www.inkscape.org/) -->

<svg
   width="184.63667mm"
   height="432.27621mm"
   viewBox="0 0 184.63667 432.27621"
   version="1.1"
   id="svg5"
   inkscape:version="1.1 (c68e22c387, 2021-05-23)"
   sodipodi:docname="drawing.svg"
   xmlns:inkscape="http://www.inkscape.org/namespaces/inkscape"
   xmlns:sodipodi="http://sodipodi.sourceforge.net/DTD/sodipodi-0.dtd"
   xmlns="http://www.w3.org/2000/svg"
   xmlns:svg="http://www.w3.org/2000/svg">
  <sodipodi:namedview
     id="namedview7"
     pagecolor="#505050"
     bordercolor="#ffffff"
     borderopacity="1"
     inkscape:pageshadow="0"
     inkscape:pageopacity="0"
     inkscape:pagecheckerboard="1"
     inkscape:document-units="mm"
     showgrid="false"
     inkscape:zoom="0.25"
     inkscape:cx="-12"
     inkscape:cy="1318"
     inkscape:window-width="1920"
     inkscape:window-height="991"
     inkscape:window-x="-9"
     inkscape:window-y="-9"
     inkscape:window-maximized="1"
     inkscape:current-layer="layer1" />
  <defs
     id="defs2" />
  <g
     inkscape:label="Layer 1"
     inkscape:groupmode="layer"
     id="layer1"
     transform="translate(-25.553602,31.884013)">
    <path
       style="fill:#e6e6e6;fill-opacity:1;stroke-width:0.744501"
       d="m 89.952676,399.18568 c -3.681409,-0.69994 -4.50719,-1.13143 -4.695542,-2.45272 -0.222471,-1.55975 2.222686,-4.01722 3.930524,-3.95066 0.42032,0.0176 -0.156521,0.52936 -1.282417,1.1405 -2.403565,1.30396 -2.667013,2.96097 -0.558376,3.5124 0.959087,0.25061 1.48906,0.0264 1.48906,-0.64015 0,-1.17101 3.535176,-3.73321 4.214196,-3.05419 0.244454,0.24534 -0.448459,0.85296 -1.541292,1.35031 -2.362324,1.07638 -2.276677,3.14053 0.14421,3.48567 0.92708,0.13189 1.637843,-0.0352 1.579368,-0.37196 -0.30337,-1.7489 0.202246,-3.10967 1.313457,-3.53615 0.68412,-0.26204 1.437707,-0.18114 1.675127,0.18115 0.237419,0.36228 0.934377,0.87581 1.54859,1.14084 0.614653,0.26556 0.02638,0.37372 -1.302905,0.24094 -1.926791,-0.19258 -2.419657,0.0352 -2.419657,1.10373 0,1.95669 3.164363,2.51885 5.513673,0.97949 1.062228,-0.69643 1.931368,-1.61366 1.931368,-2.03908 0,-0.83449 5.0237,-5.36709 8.13724,-7.34119 4.44449,-2.8179 5.43427,-4.34847 4.93296,-7.6282 -0.25852,-1.68875 -0.54606,-5.08069 -0.63927,-7.53754 -0.0932,-2.45685 -0.61202,-5.52589 -1.15166,-6.82001 -1.19967,-2.87453 -0.87054,-27.97945 0.65598,-50.00951 0.81778,-11.80732 0.82657,-15.9531 0.044,-23.07753 -0.52409,-4.77653 -1.11297,-8.94395 -1.30889,-9.26095 -0.19609,-0.31655 -0.99092,0.18466 -1.76658,1.11473 -1.80465,2.16386 -1.81098,1.56143 -0.0264,-2.4951 1.76051,-4.00113 3.03124,-14.92366 3.03906,-26.12283 0.003,-4.62273 0.50122,-15.10542 1.10629,-23.29498 0.60498,-8.18948 1.10506,-20.30869 1.11077,-26.93147 l 0.009,-12.04156 -2.31317,-1.73176 c -1.27221,-0.9524 -4.37115,-3.70181 -6.88666,-6.10968 l -4.57349,-4.37793 4.39517,3.78895 c 8.87447,7.65054 13.55894,8.02795 19.80113,1.59546 0.61378,-0.63312 2.12183,-1.97269 3.35026,-2.97733 2.0768,-1.69843 2.05069,-1.61893 -0.37196,1.13408 -1.43322,1.62834 -2.85915,3.07757 -3.16876,3.22064 -0.30952,0.14333 -0.34206,0.61817 -0.0704,1.05599 0.27084,0.4379 0.15653,0.58827 -0.25412,0.33502 -0.40977,-0.25325 -1.71822,0.55398 -2.9069,1.79436 -2.12376,2.21601 -2.16588,2.42335 -2.42308,11.91952 -0.14421,5.31529 0.26116,16.93575 0.90078,25.82315 0.63928,8.88749 1.35374,21.85447 1.58746,28.81552 0.47396,14.12716 1.47772,22.26177 3.0504,24.72847 0.5786,0.90694 1.05142,2.0368 1.05142,2.51076 0,1.36323 -2.22093,-0.76414 -2.30068,-2.20352 -0.0352,-0.66653 -0.35613,-0.20664 -0.7105,1.02178 -1.27609,4.43122 -1.84018,15.85338 -1.32366,26.80203 0.2893,6.14213 0.75798,20.59324 1.04104,32.11354 0.42648,17.35862 0.32887,21.50273 -0.56893,24.1963 -0.68412,2.05253 -0.88566,4.17506 -0.54694,5.75988 0.34997,1.63987 0.15652,3.41832 -0.55926,5.13117 -0.60234,1.44175 -0.90949,3.3615 -0.68236,4.26607 0.23039,0.91864 3.19866,3.74789 6.72311,6.40866 3.47063,2.62023 6.3245,5.15842 6.34191,5.64056 0.0528,1.41379 3.90379,4.04827 5.57162,3.8097 0.89226,-0.1275 1.62527,-0.8679 1.75436,-1.77071 0.18378,-1.28303 -0.13894,-1.52537 -1.86128,-1.40121 -1.1456,0.0791 -1.49663,0.004 -0.77997,-0.17587 0.71665,-0.17938 1.3029,-0.64895 1.3029,-1.04456 0,-0.43614 0.58564,-0.40537 1.48898,0.0791 0.81865,0.43791 1.48897,1.45512 1.48897,2.25971 0,0.96647 0.50561,1.46277 1.48906,1.46277 2.1439,0 1.89285,-2.51023 -0.37196,-3.72248 -1.02363,-0.54782 -1.86119,-1.29736 -1.86119,-1.66554 0,-0.71226 4.12037,1.99142 4.86068,3.18916 0.66829,1.08088 2.58427,0.8468 2.58427,-0.31568 0,-0.56453 -0.70875,-1.49636 -1.57445,-2.07135 -1.31979,-0.87582 -1.40614,-1.18525 -0.53375,-1.90947 0.72984,-0.60586 1.36709,-0.63312 2.13282,-0.0915 0.9174,0.64895 0.89533,0.70962 -0.13806,0.38075 -1.91272,-0.6085 -2.27967,0.37108 -0.58387,1.5587 0.89964,0.63048 1.43278,1.70722 1.29815,2.62243 -0.26643,1.81257 -2.56167,2.61285 -9.3545,3.26197 l -4.65896,0.44494 -3.53052,-3.90493 c -1.94183,-2.14777 -5.60301,-5.38793 -8.13601,-7.20032 -5.11147,-3.65749 -5.62878,-4.87633 -4.20391,-9.90479 0.51792,-1.82699 0.74127,-4.11861 0.49682,-5.09247 -0.24445,-0.97386 0.153,-3.7442 0.88346,-6.15629 1.2301,-4.0626 1.26308,-5.77132 0.44846,-23.19852 -0.48363,-10.3471 -1.22438,-22.49823 -1.64584,-27.00243 -0.80547,-8.60962 0.0791,-25.84188 1.64259,-32.05814 0.60146,-2.38694 0.52144,-4.8124 -0.33327,-10.10967 -0.61817,-3.8331 -1.32981,-13.50223 -1.58086,-21.487 -0.25061,-7.98477 -0.76853,-19.0406 -1.15043,-24.56852 -0.38163,-5.52792 -0.7061,-15.66248 -0.72017,-22.52117 -0.0176,-6.8587 -0.31304,-12.47042 -0.6639,-12.47042 -0.35085,0 -0.84855,9.12948 -1.10751,20.28767 -0.72721,31.36963 -1.79217,54.02253 -2.80964,59.74618 -1.14771,6.4557 -1.11772,7.69635 0.43175,17.86802 1.35997,8.92636 1.23792,23.66712 -0.31832,38.42476 -1.36578,12.95115 -0.49155,36.77593 1.84457,50.24967 0.54343,3.13472 -0.4423,6.24941 -1.97761,6.24941 -1.27662,0 -9.92449,7.16303 -12.11499,10.03493 -2.251004,2.95121 -3.814983,3.16146 -11.974476,1.60979 z m -8.843437,-2.94382 c -3.051896,-2.44208 -2.202901,-4.52803 2.475142,-6.0819 1.987114,-0.66038 5.095639,-2.18215 6.907941,-3.38252 4.334928,-2.87137 9.650228,-9.17504 9.05175,-10.73479 -0.250609,-0.65247 -0.09057,-2.63184 0.354371,-4.39948 0.746557,-2.96405 0.428237,-4.56839 -4.0983,-20.64617 -7.255628,-25.77268 -7.626355,-27.54031 -8.49742,-40.51186 -0.596187,-8.87333 -0.571566,-14.95752 0.09409,-23.85081 0.838003,-11.19187 0.798433,-12.35637 -0.626963,-18.61255 -0.836245,-3.6705 -1.745737,-8.34881 -2.020792,-10.39616 -0.275231,-2.04743 -2.154098,-10.75809 -4.175682,-19.35707 -4.810734,-20.46346 -6.932825,-39.29671 -6.375593,-56.582 0.522323,-16.2052 1.96812,-22.11773 8.804571,-36.01144 l 5.359525,-10.8921 0.309525,-8.18957 C 89.054791,116.43259 87.139695,99.670776 85.176411,96.007745 l -1.376242,-2.567736 -4.625635,13.226461 c -2.544082,7.27454 -5.221295,16.07858 -5.949293,19.56443 -1.657101,7.93376 -3.943626,13.69699 -11.220534,28.28132 -6.848937,13.72672 -6.851048,13.73278 -6.757047,19.99916 0.04397,2.70659 -0.412407,7.27515 -1.006659,10.15224 -0.594428,2.87717 -1.122643,7.57219 -1.174083,10.43335 -0.11871,6.59095 -0.469563,7.80785 -2.25021,7.80785 -1.144977,0 -1.420824,-0.49418 -1.350741,-2.41965 l 0.08793,-2.41966 0.486271,2.2335 c 0.334146,1.53584 0.675326,1.93365 1.09081,1.27345 0.63224,-1.00376 1.979639,-16.55324 1.506647,-17.3872 -0.149486,-0.2638 0.261161,-1.75514 0.912746,-3.31446 0.942116,-2.25478 1.020728,-3.38218 0.384268,-5.50673 -1.136888,-3.79484 -0.300731,-6.30454 7.691776,-23.08535 7.685885,-16.13697 10.375145,-23.23097 9.660248,-25.48338 -0.347336,-1.09556 -0.22247,-1.34714 0.461649,-0.92453 0.568049,0.35085 0.752708,0.27875 0.468684,-0.18202 -0.458132,-0.74128 5.557727,-19.97622 9.46618,-30.267208 1.068212,-2.812717 1.960469,-6.162971 1.982716,-7.445036 0.02638,-1.281977 0.619929,-3.838546 1.327879,-5.681185 1.261489,-3.28272 1.253135,-3.421479 -0.412407,-6.882967 -2.170981,-4.511059 -2.178631,-5.544801 -0.0088,-1.721028 1.943411,3.431152 2.886054,3.734345 3.602445,1.158959 0.317439,-1.140229 0.546945,-1.363052 0.591791,-0.575083 0.04397,0.706983 -0.788761,3.554962 -1.844047,6.328197 -2.60414,6.845157 -2.34122,12.92336 0.706983,16.344399 2.7254,3.058842 5.568631,4.178142 9.765504,3.844352 2.97548,-0.23654 3.23761,-0.14509 2.078476,0.72369 -1.470682,1.10268 -8.271344,0.51265 -9.61848,-0.83449 -1.248123,-1.248034 -1.454063,-0.19873 -0.885047,4.50754 1.396115,11.54826 1.882209,21.64404 1.260082,26.17119 -0.491546,3.57449 -1.959151,7.39228 -5.868219,15.2623 -2.957456,5.95413 -5.873671,13.07249 -6.739724,16.45141 -2.239657,8.73774 -2.67607,24.94171 -1.111387,41.26536 1.439202,15.01414 2.330756,20.07426 6.765313,38.39618 1.783899,7.37056 3.785522,16.58376 4.448098,20.47383 0.663016,3.88999 1.880099,9.92044 2.705615,13.40101 2.227435,9.39118 2.246956,9.55719 0.743915,6.3282 l -1.386091,-2.97794 -0.573324,8.91413 c -0.685878,10.66031 0.07914,29.99778 1.480531,37.24488 0.55222,2.86636 1.857851,7.89376 2.900475,11.17208 3.158558,9.93117 7.241467,26.61183 7.288167,29.77549 0.0264,1.63784 -0.0264,4.27759 -0.11783,5.86602 -0.0888,1.58842 0.19785,3.11037 0.63751,3.38217 0.47924,0.29633 -0.95188,2.41878 -3.575097,5.30149 -4.058907,4.46041 -8.848098,7.66408 -14.404242,9.63545 -2.027914,0.71929 -3.390702,2.61935 -2.510491,3.49956 0.245333,0.24534 0.927079,0.044 1.514736,-0.44054 0.827451,-0.68676 1.193429,-0.68412 1.622015,0.009 0.350853,0.56805 0.239178,0.70083 -0.306007,0.36404 -0.473081,-0.29193 -0.859986,-0.19609 -0.859986,0.2128 0,0.40977 0.335025,0.95162 0.744793,1.20469 0.86878,0.53639 1.001559,1.86295 0.186419,1.8575 -0.306887,-0.002 -1.522739,-0.77557 -2.701307,-1.71839 z m 70.264741,0.97764 c 0,-0.40977 0.33503,-0.74479 0.7448,-0.74479 0.40976,0 0.74479,-0.67006 0.74479,-1.48898 0,-0.81865 -0.39042,-1.48906 -0.86878,-1.48906 -0.47748,0 -0.64719,-0.22159 -0.37723,-0.49154 0.27083,-0.27084 1.10734,0.0616 1.85961,0.74655 0.7527,0.6806 1.58016,1.02556 1.83965,0.7659 0.81953,-0.81954 -0.9583,-3.25406 -2.37701,-3.25406 -2.70105,0 -9.26279,-4.27144 -14.2377,-9.26833 -4.38901,-4.40835 -4.93498,-5.24468 -4.02065,-6.15901 1.23124,-1.23124 1.29332,-2.00224 0.40889,-5.08553 -0.84592,-2.95015 0.32183,-8.57357 5.86698,-28.25186 2.42318,-8.59899 4.75314,-18.47344 5.17759,-21.94328 0.85559,-6.98928 1.03041,-30.1441 0.27611,-36.42903 l -0.48275,-4.02365 -1.33008,3.2792 c -1.76719,4.357 -1.73887,3.31227 0.0879,-3.24464 0.82569,-2.96352 2.35265,-10.07855 3.39316,-15.81117 1.04043,-5.73272 3.22231,-15.72333 4.84855,-22.20145 5.69015,-22.66724 7.74445,-39.93414 7.19574,-60.48262 -0.43351,-16.23255 -1.6731,-21.6021 -7.72422,-33.45804 -7.54976,-14.79194 -8.08668,-18.25096 -5.88941,-37.93999 0.59267,-5.30694 0.99558,-9.73024 0.89621,-9.82961 -0.0994,-0.0994 -1.71724,0.37196 -3.59532,1.04729 -2.91419,1.0479 -3.87574,1.08975 -6.5599,0.28578 -3.84971,-1.15342 -3.67262,-1.61032 0.34997,-0.90307 7.53807,1.32541 13.42397,-3.864313 13.37596,-11.793685 -0.0176,-2.282041 -0.54783,-5.321714 -1.18719,-6.754848 -0.63927,-1.433223 -1.25419,-2.940837 -1.36692,-3.350253 -0.11256,-0.409769 -0.5021,-1.582094 -0.86438,-2.605811 -0.58916,-1.66308 -0.55134,-1.722523 0.35701,-0.558376 0.55925,0.716655 1.22499,1.302906 1.47912,1.302906 0.25413,0 1.29033,-1.591327 2.30288,-3.536408 2.46037,-4.726495 2.41579,-3.52823 -0.0615,1.70819 -1.88221,3.975281 -1.9195,4.281992 -0.80547,6.6182 0.64279,1.347312 1.40201,4.087221 1.68788,6.088667 0.28578,2.001535 1.60592,6.654342 2.93336,10.33962 1.32744,3.685278 3.9168,11.223348 5.75408,16.751268 1.83736,5.52791 3.59163,10.72081 3.89843,11.53973 0.44582,1.18885 0.3957,1.26395 -0.24534,0.37196 -3.37461,-4.69124 2.84605,11.82604 9.81361,26.05749 7.41821,15.15167 8.52186,18.36167 7.4912,21.78834 -0.44231,1.47112 -0.46605,3.42165 -0.0616,5.01368 0.97447,3.82395 1.93215,12.35558 1.98482,17.68187 0.0791,7.56418 2.09404,5.17064 2.50953,-2.97461 0.25676,-5.03795 1.69825,-3.02551 1.86392,2.60238 0.18553,6.30428 0.74127,9.49239 1.65402,9.49239 0.99417,0 1.63221,-4.55142 1.34713,-9.6096 -0.14069,-2.49625 -0.044,-4.53805 0.21544,-4.53726 0.25852,7e-4 1.36446,2.80779 2.45668,6.23798 1.09221,3.43018 2.46107,6.86414 3.04187,7.6311 0.9874,1.30396 1.05731,1.24944 1.07551,-0.83888 0.009,-1.22843 -0.28051,-3.4061 -0.64631,-4.83923 -0.36668,-1.43322 -0.86087,-3.7784 -1.09864,-5.21153 l -0.43263,-2.60573 1.47508,1.75761 c 0.81162,0.96665 1.45151,2.30675 1.42276,2.97795 -0.044,0.94959 -0.19433,0.88997 -0.69203,-0.2682 -0.9867,-2.29629 -0.83185,0.15564 0.31128,4.93709 0.55134,2.30596 0.74919,4.6033 0.43878,5.10505 -0.88953,1.43938 -3.71904,0.15652 -3.78552,-1.71672 -0.0352,-0.89375 -0.6762,-3.30004 -1.43129,-5.34748 l -1.3736,-3.72247 -0.0703,3.72247 c -0.0932,5.11085 -0.72632,7.07282 -2.28107,7.07282 -1.62931,0 -2.18136,-1.94649 -2.32284,-8.18957 -0.10376,-4.59204 -0.13366,-4.6681 -0.58827,-1.48897 -0.54343,3.80548 -1.23564,5.21153 -2.56668,5.21153 -0.64104,0 -1.18693,-2.91779 -1.78839,-9.55384 -0.4766,-5.25454 -1.2235,-10.49474 -1.66079,-11.64482 -0.47572,-1.25102 -0.6041,-4.21709 -0.32008,-7.38357 l 0.47572,-5.29261 -7.05584,-14.14545 c -8.00632,-16.05123 -9.86259,-20.6926 -11.45303,-28.63807 -0.61729,-3.08496 -2.64108,-9.96432 -4.49664,-15.28753 -1.85565,-5.32312 -3.90467,-11.269862 -4.55336,-13.214856 -0.64894,-1.944993 -1.39972,-3.536407 -1.66879,-3.536407 -2.3465,0 -5.633,22.081153 -4.99478,33.558633 0.33942,6.10986 0.583,6.84603 5.65859,17.12348 6.09104,12.33377 7.90141,18.79686 9.16017,32.70199 1.22271,13.50583 -1.1368,37.13065 -5.68831,56.9543 -1.78627,7.78007 -3.63955,16.32321 -4.11844,18.98477 -0.47923,2.66156 -1.67143,8.69202 -2.65013,13.40101 -1.6002,7.70005 -1.70819,9.34862 -1.07278,16.37905 1.72551,19.09116 0.47836,37.42461 -3.45929,50.86563 -8.10788,27.67388 -9.21997,32.57475 -8.73071,38.47445 0.46165,5.563 0.47836,5.59967 4.65395,9.88465 4.26265,4.37432 7.63392,6.56184 11.63883,7.55196 4.62459,1.14322 5.44773,3.83662 1.93664,6.33673 -2.41622,1.7205 -3.04917,1.88555 -3.04917,0.79492 z m -23.42636,-51.74286 c 0.35525,-2.88719 1.81609,-22.75076 1.82928,-24.87866 0.004,-0.58036 0.19609,-0.86438 0.42823,-0.63224 0.58388,0.58476 -1.1506,23.95449 -1.96407,26.45715 -0.54783,1.68621 -0.59795,1.52511 -0.2937,-0.94589 z m -21.13666,-5.59334 c -0.46869,-4.11879 -0.78789,-10.4082 -0.7105,-13.97644 0.10552,-4.86517 0.19433,-5.37052 0.35525,-2.02071 0.11783,2.45686 0.57684,8.60725 1.01967,13.66754 0.4423,5.06029 0.66565,9.33947 0.49594,9.50936 -0.16971,0.16971 -0.69203,-3.06096 -1.16045,-7.17975 z m -0.6384,-41.3102 c 0.006,-2.04735 0.15037,-2.79654 0.32096,-1.66484 0.17147,1.1317 0.16619,2.80683 -0.009,3.72248 -0.17674,0.91573 -0.31656,-0.009 -0.31128,-2.05764 z m 23.66985,2.29558 c -0.0352,-0.78436 0.14333,-1.22455 0.3913,-0.9772 0.24709,0.24709 0.27347,0.88953 0.0616,1.42698 -0.23742,0.59355 -0.41416,0.41768 -0.45022,-0.45022 z m -0.63048,-4.9013 c 0,-1.43314 0.153,-2.01948 0.3403,-1.30291 0.18729,0.71666 0.18729,1.88925 0,2.60581 -0.1873,0.71666 -0.3403,0.13014 -0.3403,-1.3029 z m -23.0661,-14.71878 c 2.35423,-2.65919 2.8019,-3.70753 2.8558,-6.68776 0.0616,-3.28782 0.1108,-3.37848 0.73161,-1.3007 0.82217,2.75028 -1.64725,8.20952 -4.51827,9.98867 -1.45969,0.90457 -1.25894,0.47309 0.93068,-2.00021 z m 24.74263,2.23702 c -2.62823,-1.90041 -4.82727,-5.71662 -4.82727,-8.37748 0,-1.58227 0.25765,-3.03598 0.57245,-3.23049 0.3148,-0.19433 0.45285,0.89463 0.30776,2.4201 -0.21631,2.26357 0.22599,3.41567 2.40102,6.26559 2.70904,3.54907 2.89221,3.89526 1.54657,2.92228 z m 8.84229,-1.29148 c 0.77557,-3.05391 2.6453,-7.40124 2.67678,-6.22346 0.0176,0.67181 -0.66214,2.68204 -1.51105,4.467 -0.84943,1.78495 -1.37369,2.57539 -1.16573,1.75646 z m -44.775293,-1.61137 c -0.386027,-0.75183 -0.905624,-2.37173 -1.154738,-3.60016 -0.349974,-1.72384 -0.115193,-1.48669 1.029257,1.03919 1.436388,3.17123 1.541556,5.31847 0.125745,2.56097 z M 37.006191,207.04085 c -0.24973,-0.65247 -0.07914,-2.66781 0.374596,-4.47949 1.130996,-4.49181 0.951964,-6.59728 -0.287542,-3.3791 -1.415372,3.67543 -1.36015,1.72419 0.07035,-2.47312 0.652464,-1.91554 1.490291,-3.48286 1.861281,-3.48286 0.932883,0 0.853831,1.20495 -0.508254,7.79528 -0.650705,3.1466 -1.008066,5.89618 -0.794036,6.11021 0.923738,0.92382 1.846508,-0.86175 3.892976,-7.53174 1.198441,-3.90599 2.346408,-7.1028 2.551205,-7.10385 0.204884,-7.1e-4 0.478356,3.08856 0.607618,6.86573 0.129262,3.77717 0.399216,7.03113 0.598825,7.231 0.877572,0.87758 1.66985,-2.16711 2.153043,-8.27231 0.286662,-3.62082 0.73688,-6.58329 1.000415,-6.58329 1.05467,0 0.683241,4.77064 -1.087557,13.95939 -0.204884,1.06478 -0.859986,1.67513 -1.797529,1.67513 -1.151397,0 -1.492226,-0.53112 -1.553955,-2.41966 -0.04397,-1.33078 -0.153883,-2.92219 -0.245334,-3.53641 -0.09145,-0.61465 -0.257644,-1.7868 -0.370198,-2.60572 -0.112555,-0.81866 -0.946161,0.85559 -1.852488,3.72195 -1.643558,5.19676 -3.611151,7.11986 -4.613061,4.50886 z m 1.653759,-12.12396 c -0.247092,-0.2471 -0.422958,0.19257 -0.391302,0.9772 0.03517,0.86702 0.211919,1.04368 0.449338,0.45022 0.215436,-0.53728 0.189056,-1.17954 -0.06155,-1.42698 z m -6.405842,8.77291 c 0,-0.85383 0.478356,-3.47336 1.06276,-5.82161 0.584756,-2.34835 1.351796,-6.33989 1.705112,-8.87017 0.680602,-4.87361 0.51265,-5.01773 -2.588488,-2.22533 -1.819337,1.63811 -6.87989,2.45642 -6.87989,1.11245 0,-0.44582 1.096702,-1.85592 2.437155,-3.13271 1.340453,-1.27679 3.979943,-4.33686 5.865405,-6.80022 1.885551,-2.46336 4.269594,-4.92909 5.297885,-5.47947 1.02829,-0.55046 2.259354,-1.856 2.735688,-2.90153 0.476597,-1.04552 2.359862,-9.46802 4.18553,-18.71683 2.933714,-14.8615 3.703129,-17.59464 6.620751,-23.51641 1.959326,-3.97668 3.957343,-9.57565 4.915023,-13.77323 0.887509,-3.89007 3.407849,-14.275858 5.600814,-23.079549 2.192965,-8.803691 4.647619,-19.431556 5.454845,-23.617437 1.778624,-9.222957 2.94708,-11.818831 7.417161,-16.478321 2.686974,-2.800847 5.085966,-4.289907 10.891049,-6.760213 4.094783,-1.742483 9.521401,-4.115359 12.059328,-5.273087 l 4.614294,-2.104944 1.6068,-5.290058 c 1.9792,-6.515935 1.6418,-10.102904 -1.40368,-14.926037 -0.90492,-1.433134 -1.78064,-3.275774 -1.94604,-4.094695 -0.16532,-0.818658 -0.85735,-3.9450329 -1.53743,-6.9468948 -0.680601,-3.001774 -1.040511,-5.65410159 -0.801069,-5.8938953 0.240057,-0.2400575 0.436149,-0.0263799 0.436149,0.47220102 0,0.4994603 0.838,2.14064458 1.86119,3.64711538 1.02372,1.5065587 1.84941,3.0801224 1.8349,3.4969255 -0.0176,0.4168032 -0.52232,-0.07914 -1.12792,-1.1034731 -1.07322,-1.8134454 -1.09001,-1.7846912 -0.6551,1.116751 0.24534,1.6379308 1.33931,4.8206713 2.43074,7.0727273 1.63371,3.371181 2.74316,4.542099 6.27763,6.626114 4.82877,2.8471 5.28312,3.980119 0.64807,1.615332 -1.66123,-0.847675 -3.20129,-1.54094 -3.42236,-1.54094 -0.22071,0 -0.40185,1.781877 -0.40185,3.95963 0,4.92962 -1.75145,11.007911 -3.67306,12.746965 -0.80019,0.72369 -5.912358,3.240688 -11.361048,5.592812 -5.448689,2.352124 -10.982322,4.9356 -12.297011,5.741068 -4.970861,3.045389 -8.512808,9.682847 -10.264437,19.235377 -0.675326,3.685278 -3.18784,14.406088 -5.582348,23.823992 -2.394507,9.417904 -5.092209,20.718634 -5.99493,25.112744 -0.902722,4.39402 -1.885551,7.83818 -2.184084,7.6537 -0.895159,-0.5531 -5.877452,11.51801 -7.06411,17.11513 -0.607618,2.86627 -1.984827,9.9018 -3.060425,15.63451 -1.939981,10.33945 -3.407849,15.25896 -4.554937,15.26582 -1.885111,0.009 -11.726941,11.27382 -10.776735,12.33244 0.27611,0.30777 0.127503,0.34558 -0.32887,0.0879 -1.119565,-0.6384 -3.642631,2.1468 -2.554019,2.81957 0.913186,0.56453 4.724736,-1.61225 7.7776,-4.44159 1.56943,-1.45441 1.955193,-1.58904 1.655957,-0.57772 -0.214557,0.72545 -0.595308,2.826 -0.845917,4.66864 -0.25061,1.84264 -0.971046,5.69543 -1.600384,8.5617 -0.629601,2.86635 -1.194747,5.84764 -1.256388,6.62514 -0.129262,1.6345 1.46734,2.49458 1.944465,1.0472 0.208402,-0.63224 0.292818,-0.58212 0.240937,0.14509 -0.04397,0.61465 -0.830089,1.22385 -1.746792,1.3547 -1.269843,0.18114 -1.667564,-0.1319 -1.667564,-1.31416 z m 167.904042,-0.74831 c -0.62432,-1.20811 -1.1186,-2.63193 -1.09749,-3.1641 0.0176,-0.53199 0.55925,0.28842 1.19633,1.82426 0.63663,1.53558 1.45723,2.79188 1.82294,2.79188 0.89613,0 0.84064,-2.99544 -0.10552,-5.7102 -0.42384,-1.2155 -1.20961,-5.03453 -1.74644,-8.48678 -0.53727,-3.45226 -1.24953,-6.9112 -1.58376,-7.6865 -0.36844,-0.85559 1.0617,-0.0528 3.63665,2.04734 2.33436,1.90147 4.90139,3.4571 5.7044,3.4571 1.99907,0 1.83068,-0.85735 -0.51353,-2.61514 -1.08545,-0.81338 -3.29037,-3.26108 -4.89981,-5.4384 -1.60953,-2.1774 -4.2135,-4.8576 -5.78671,-5.95597 -1.57321,-1.09846 -3.20982,-2.74211 -3.63691,-3.65257 -0.42736,-0.91046 -1.96469,-7.77848 -3.41665,-15.26229 -1.45204,-7.48382 -3.16506,-15.44951 -3.80671,-17.70165 -1.58192,-5.5521 -4.82524,-12.71074 -5.55456,-12.25999 -0.32623,0.20224 -1.32841,-2.90382 -2.22647,-6.90144 -0.89806,-3.99761 -3.60473,-15.22026 -6.0148,-24.939244 -2.41007,-9.718987 -5.03057,-21.016902 -5.82329,-25.106497 -2.51911,-12.994761 -5.23352,-16.959139 -14.93166,-21.807509 -3.89008,-1.944642 -9.4063,-4.430424 -12.25824,-5.523873 -7.9838,-3.060865 -9.66798,-5.545152 -10.5933,-15.625369 l -0.42032,-4.583603 -2.32328,1.416691 c -3.1561,1.924505 -4.14359,1.799376 -1.49311,-0.189057 7.19021,-5.394435 9.28864,-8.483087 10.28572,-15.1398899 0.43439,-2.9015302 0.41768,-2.9301964 -0.6551,-1.1167511 -0.60586,1.0237178 -1.11341,1.5980971 -1.12792,1.2765256 -0.0176,-0.3218353 1.00727,-2.3318113 2.27061,-4.4670041 1.82865,-3.09067434 2.19463,-3.4268428 1.79506,-1.64874654 -0.27611,1.22842614 -0.8081,4.12177854 -1.18287,6.42975994 -0.84416,5.2019491 -2.31396,8.8075601 -4.33669,10.6380651 -2.87656,2.60326 -1.81432,14.094013 1.64831,17.829941 0.90228,0.973508 6.66296,3.904671 12.80148,6.513736 12.12528,5.153586 14.79036,7.150987 18.40582,13.794425 1.16977,2.149438 2.44375,6.373219 3.14959,10.441446 0.65158,3.757559 2.81904,13.305781 4.81609,21.218269 1.99697,7.912577 4.52795,18.406695 5.62438,23.320395 1.32885,5.95493 3.07169,11.16839 5.22684,15.63452 3.26865,6.77384 5.23545,14.15372 8.63117,32.38578 0.87669,4.70899 1.94736,9.22902 2.3785,10.04451 0.43087,0.81514 2.48754,3.19567 4.56997,5.28927 5.6068,5.63696 11.6034,12.67521 11.6034,13.61874 0,1.7686 -4.42919,0.81514 -7.09753,-1.52767 l -2.6824,-2.35511 0.48451,4.77477 c 0.26644,2.62612 0.95927,6.50151 1.5398,8.61191 1.37765,5.00806 1.36288,7.70268 -0.044,7.70268 -0.60411,0 -1.60883,-0.98846 -2.23351,-2.19657 z M 98.142418,170.75857 c -1.770798,-0.98898 -8.744073,-8.123 -8.337382,-8.5296 0.155642,-0.15564 2.095008,1.47851 4.310044,3.63129 2.215036,2.15269 4.697389,4.31312 5.51631,4.8008 1.88854,1.12484 0.51177,1.21497 -1.488972,0.0976 z m 34.681362,0.64807 c 0.17059,-0.12574 1.81775,-1.33641 3.66039,-2.6904 l 3.35026,-2.46169 -2.78089,2.6904 c -1.52951,1.47965 -3.17676,2.69032 -3.66048,2.69032 -0.48363,0 -0.7404,-0.10289 -0.56893,-0.22863 z m 7.58371,-6.42035 c 0.0616,-0.79052 0.34118,-1.2935 0.62608,-1.11763 0.2849,0.17587 1.21445,-0.76854 2.06643,-2.09897 0.85207,-1.33025 1.55466,-2.07768 1.56152,-1.66088 0.009,0.79052 -3.5409,6.31492 -4.06278,6.31492 -0.16443,0 -0.25061,-0.64719 -0.19081,-1.43744 z M 116.4734,150.58214 c -1.09239,-1.0924 -1.00929,-2.63387 0.29018,-5.37668 l 1.05793,-2.2335 -0.43,2.79188 c -0.34645,2.24889 -0.19697,2.79188 0.76942,2.79188 1.46364,0 1.59871,1.92098 0.17323,2.46793 -0.56454,0.21631 -1.40192,0.0176 -1.86129,-0.44143 z M 113.54989,47.86197 c -1.23449,-1.234757 -2.89265,-1.792077 -6.30762,-2.11998 l -4.63285,-0.444942 4.32983,-0.113433 c 4.71744,-0.123986 6.74852,0.611135 7.96358,2.881569 1.01906,1.904104 0.70698,1.857236 -1.35294,-0.203126 z m 8.0443,1.114465 c 0,-0.451097 0.88276,-1.51456 1.9617,-2.363291 1.54833,-1.217962 2.92079,-1.519133 6.51435,-1.429529 l 4.55274,0.113433 -4.59407,0.444942 c -3.43845,0.333267 -5.07699,0.898853 -6.51435,2.24977 -1.05616,0.992677 -1.92037,1.435772 -1.92037,0.984675 z m -7.72528,-11.007823 c -0.71841,-1.872185 -0.50649,-2.35529 0.37108,-0.845917 0.43439,0.747431 0.63312,1.515528 0.44142,1.707222 -0.19169,0.191694 -0.55749,-0.196091 -0.8125,-0.860866 z m 8.94175,-1.832527 c 0.25149,-1.02363 0.91433,-2.866269 1.47367,-4.094695 0.8169,-1.793837 0.92717,-1.867085 0.56013,-0.371958 -0.25149,1.023718 -0.91424,2.866357 -1.47367,4.094783 -0.8169,1.793837 -0.92717,1.867085 -0.56013,0.371958 z M 111.9984,33.075396 c -0.45901,-1.315744 -0.70347,-2.522539 -0.54431,-2.681786 0.15916,-0.159159 0.66477,0.787002 1.12343,2.102746 0.45902,1.315743 0.70347,2.522538 0.54431,2.681697 -0.15916,0.159159 -0.66477,-0.787002 -1.12343,-2.102657 z M 137.88627,3.6131296 c 1.07138,-2.0953591 1.0763,-7.4408153 0.007,-8.101457 -0.5742,-0.35525 -0.51792,-0.7034653 0.18642,-1.1492863 0.83449,-0.5284783 0.83713,-0.641912 0.009,-0.6515847 -0.54871,-0.00624 -1.59907,0.7316038 -2.33437,1.6396016 l -1.33693,1.6510328 -6.06765,-6.1745779 c -5.94745,-6.0522631 -9.73746,-11.0770271 -9.73746,-12.9099931 0,-0.507375 1.2002,0.996546 2.66702,3.341547 1.6359,2.615308 3.00309,4.071305 3.53632,3.766001 0.47835,-0.273472 0.66389,-0.266437 0.41328,0.01759 -0.25061,0.282265 1.75946,2.81008 4.46701,5.6176092 3.78508,3.9248083 5.06547,4.8571635 5.53996,4.0342851 0.37196,-0.6454294 0.22423,-1.5721569 -0.37196,-2.3341855 -0.88478,-1.1302048 -0.85471,-1.1585193 0.28315,-0.2673168 1.11807,0.8758142 1.33087,0.7623804 1.75708,-0.9355208 0.67445,-2.6869732 -0.18994,-6.6508242 -2.61689,-12.0036662 -2.22322,-4.903065 -4.64076,-7.111594 -9.76304,-8.918884 -4.8475,-1.7103 -5.27916,-1.550965 -4.01239,1.480794 1.3211,3.161813 1.33148,3.424381 0.11695,2.958335 -1.22368,-0.469563 -3.38596,2.460282 -6.75942,9.159117 -1.98246,3.93668 -3.74103,6.167016 -6.87646,8.7211223 -2.31713,1.8873971 -4.41961,3.224069 -4.67224,2.9702939 -0.25237,-0.2541268 0.37811,-1.1214115 1.40191,-1.9281981 4.48257,-3.5325385 7.39237,-6.8849021 9.64601,-11.1132551 1.3299,-2.495103 3.4257,-5.684351 4.65746,-7.087148 2.15437,-2.453687 2.19332,-2.621288 1.02363,-4.406419 -1.55184,-2.368391 -2.94699,-2.334625 -7.93473,0.191695 -3.37628,1.710124 -4.48987,2.823093 -6.76021,6.756431 -3.64035,6.306742 -4.890407,12.7823148 -3.25898,16.8814065 l 1.18534,2.978032 -1.57489,-2.0473475 c -1.809486,-2.3524756 -2.58743,-2.5500614 -3.249303,-0.8256923 -0.392182,1.0217832 -0.283145,1.0678602 0.664775,0.2813861 0.706982,-0.5873935 1.13381,-0.6427913 1.13381,-0.1494864 0,0.4352691 -0.373716,1.0225746 -0.830089,1.3046642 -0.514409,0.318318 -0.693793,1.9305723 -0.472201,4.24057619 0.476597,4.95758311 -0.64455,2.80972801 -1.301851,-2.49475139 -0.409768,-3.3036485 -0.271713,-4.4007904 0.67093,-5.34317 0.652464,-0.652464 1.685855,-3.5629634 2.29699,-6.4681864 2.566509,-12.200461 8.827789,-18.193369 18.992769,-18.178508 11.13181,0.01759 18.75183,7.832205 19.50032,20.001714 0.12574,2.0474351 0.66038,4.1777916 1.18745,4.7341446 1.26219,1.3322752 0.41944,9.7210098 -1.13223,11.2726782 -0.99285,0.9926773 -1.0246,0.9361363 -0.28578,-0.5091329 z m -5.50435,-12.9036623 c -0.25765,-0.4159238 -0.72369,-0.5988247 -1.03656,-0.4053718 -0.31304,0.1934529 -0.56893,-0.1037611 -0.56893,-0.6612575 0,-0.795795 0.29282,-0.830089 1.36499,-0.160038 0.75095,0.468684 1.3649,1.1069024 1.3649,1.417834 0,0.798433 -0.57245,0.7017065 -1.12432,-0.1908149 z M 114.80821,-24.048441 c 0.82745,-1.162389 2.10336,-2.58629 2.83479,-3.164099 0.7316,-0.577721 0.41153,0.06155 -0.70962,1.4261 -1.12176,1.362172 -2.03952,2.786074 -2.03952,3.164099 0,0.378112 -0.35789,0.687637 -0.79492,0.687637 -0.43702,0 -0.11783,-0.951085 0.70962,-2.113473 z m -1.03128,-4.986162 c 1.22843,-0.562772 2.73604,-1.012286 3.35026,-0.999624 0.61465,0.0088 -0.0528,0.474839 -1.48898,1.026532 -3.39923,1.308973 -4.7366,1.289715 -1.86128,-0.02638 z"
       id="path169" />
  </g>
</svg>
