<?xml version="1.0" encoding="UTF-8" standalone="no"?>
<!-- Created with Inkscape (http://www.inkscape.org/) -->

<svg
   width="203.21307mm"
   height="431.75046mm"
   viewBox="0 0 203.21308 431.75046"
   version="1.1"
   id="svg5"
   inkscape:version="1.1 (c68e22c387, 2021-05-23)"
   sodipodi:docname="dra2wing.svg"
   xmlns:inkscape="http://www.inkscape.org/namespaces/inkscape"
   xmlns:sodipodi="http://sodipodi.sourceforge.net/DTD/sodipodi-0.dtd"
   xmlns="http://www.w3.org/2000/svg"
   xmlns:svg="http://www.w3.org/2000/svg">
  <sodipodi:namedview
     id="namedview7"
     pagecolor="#505050"
     bordercolor="#ffffff"
     borderopacity="1"
     inkscape:pageshadow="0"
     inkscape:pageopacity="0"
     inkscape:pagecheckerboard="1"
     inkscape:document-units="mm"
     showgrid="false"
     inkscape:zoom="0.35355339"
     inkscape:cx="308.29856"
     inkscape:cy="1121.4714"
     inkscape:window-width="1920"
     inkscape:window-height="991"
     inkscape:window-x="-9"
     inkscape:window-y="-9"
     inkscape:window-maximized="1"
     inkscape:current-layer="layer1" />
  <defs
     id="defs2" />
  <g
     inkscape:label="Layer 1"
     inkscape:groupmode="layer"
     id="layer1"
     transform="translate(-7.3285368,66.527972)">
    <path
       style="fill:#e6e6e6;fill-opacity:1;stroke-width:0.708616"
       d="m 70.750399,364.56779 c -0.7792,-0.16488 -2.134721,-0.45279 -3.011676,-0.64027 -1.196752,-0.25527 -1.583172,-0.82272 -1.549442,-2.27541 0.04185,-1.86482 0.06696,-1.87718 0.68546,-0.34064 0.860719,2.14151 3.241,2.06617 3.993417,-0.12633 0.557407,-1.62435 0.689644,-1.66151 2.362035,-0.66453 1.673646,0.99806 1.683438,1.03807 0.177433,0.72396 -1.932848,-0.40256 -2.20109,1.29919 -0.354029,2.24796 2.018719,1.03699 4.85497,0.24523 9.563481,-2.67028 2.437435,-1.50919 5.820631,-2.96714 7.518303,-3.23991 3.318583,-0.53315 5.777618,-2.42011 5.760455,-4.42051 -0.0059,-0.68211 -0.448596,-2.49862 -0.984074,-4.03686 -0.755767,-2.1707 -1.052049,-2.488 -1.324386,-1.41721 -0.264481,1.03958 -0.371607,0.90961 -0.4327,-0.52727 -0.04185,-1.04878 0.253593,-2.11421 0.663692,-2.36765 0.462832,-0.28623 0.616003,-2.37291 0.402578,-5.50854 -0.201709,-2.96748 0.215091,-9.29264 1.011529,-15.3478 1.40332,-10.67301 1.857197,-26.9524 0.751583,-26.9524 -0.347336,0 -0.841293,0.83526 -1.097405,1.85518 -0.256111,1.02031 -0.597585,1.72295 -0.759113,1.56141 -0.161527,-0.16154 0.1766,-2.03271 0.751583,-4.15815 2.011776,-7.43928 4.621126,-25.47703 4.88476,-33.76625 1.094897,-34.42847 1.850497,-51.47979 2.442967,-55.13214 0.37915,-2.33844 1.35218,-8.04676 2.16192,-12.68521 1.54869,-8.87158 2.86052,-21.61353 2.87083,-27.88311 0.004,-3.19705 -0.18497,-3.72023 -1.35328,-3.72023 -2.00674,0 -3.64892,-0.76664 -3.19965,-1.49338 0.22347,-0.36239 1.02694,-0.2971 1.86373,0.15067 0.8269,0.44275 3.44321,0.66119 5.97823,0.49965 4.13931,-0.26363 5.39389,0.33729 2.03162,0.9733 -1.32415,0.25025 -1.40531,0.75492 -1.23526,7.68636 0.20087,8.17322 1.82087,22.02907 3.36101,28.74147 1.39679,6.08737 2.48029,20.27935 2.78127,36.4292 0.4235,22.71285 1.56443,38.5085 3.5577,49.2488 1.01261,5.45632 2.15447,10.84928 2.53745,11.98426 0.38333,1.135 0.55072,2.20897 0.37328,2.38655 -0.17741,0.17745 -0.54987,-0.57998 -0.82691,-1.68342 -0.45027,-1.79593 -0.56074,-1.86045 -1.0476,-0.61516 -0.95579,2.44473 -0.65449,15.30645 0.54737,23.35848 0.64026,4.28718 1.25978,11.30249 1.37753,15.58958 0.11806,4.28711 0.42601,8.91082 0.68463,10.27496 0.25862,1.36407 0.21175,2.23567 -0.10375,1.93688 -0.86416,-0.81686 -2.53546,3.73412 -1.9957,5.4348 0.66704,2.10092 2.28311,3.12015 5.8177,3.66869 1.70647,0.26447 4.70097,1.5809 6.73183,2.95869 4.50781,3.05813 7.71809,4.05837 9.67095,3.01326 1.77977,-0.95253 1.96523,-3.00188 0.2109,-2.32855 -1.07917,0.4143 -1.09925,0.3398 -0.17743,-0.65951 1.14059,-1.23609 2.81122,-0.46451 2.81122,1.2981 0,0.56159 0.7315,0.97612 1.72229,0.97612 1.22261,0 1.81132,-0.46283 2.02933,-1.59437 0.26867,-1.39645 0.31889,-1.35762 0.40342,0.31218 0.0502,1.04878 -0.16154,2.06626 -0.47706,2.26119 -0.31554,0.19501 -3.01511,0.57582 -5.99958,0.84599 l -5.42628,0.49211 -4.86434,-2.93902 c -2.67539,-1.61658 -6.55071,-3.37658 -8.61187,-3.91123 -2.06106,-0.53481 -4.03819,-1.40748 -4.39356,-1.93962 -0.35571,-0.5323 -0.48376,-2.40255 -0.28623,-4.15639 1.33016,-11.78389 1.25717,-18.16862 -0.35402,-30.98006 -1.4696,-11.68495 -1.56008,-13.89919 -0.83361,-20.39911 0.54151,-4.8476 0.58585,-8.08742 0.1306,-9.66666 -2.5294,-8.78219 -4.85086,-35.0463 -4.9389,-55.87586 -0.0502,-12.195 -1.51981,-29.21201 -3.45467,-40.03684 -0.76665,-4.28712 -1.77391,-13.05624 -2.23926,-19.48693 -0.80263,-11.08781 -1.37719,-15.18552 -1.38355,-9.8616 -0.007,6.62153 -1.6441,23.35077 -3.14769,32.18301 -2.01746,11.85036 -2.37777,15.89122 -2.90681,32.59638 -1.1462,36.19435 -2.32888,50.53043 -4.911116,59.53057 -0.777532,2.7087 -0.861062,4.63961 -0.354026,8.14902 1.01078,6.9948 0.811829,13.53455 -0.744903,24.44048 -1.562739,10.95207 -1.681335,19.5846 -0.357361,26.00961 0.477903,2.31909 0.718943,5.00118 0.535651,5.96032 -0.355708,1.86052 -3.340935,3.81523 -5.826676,3.81523 -1.777008,0 -4.855052,1.52735 -8.718998,4.32635 -2.303196,1.66847 -3.505891,2.03588 -6.445423,1.96901 -1.987666,-0.0419 -4.251696,-0.21678 -5.031147,-0.38164 z m -8.85776,-1.5933 c -0.585028,-0.30632 -1.776088,-0.92525 -2.647686,-1.37552 -0.871599,-0.45028 -2.22687,-0.81855 -3.011593,-0.81855 -0.890597,0 -1.422812,-0.46618 -1.416032,-1.2401 0.01673,-2.00826 0.876787,-2.835 4.609409,-4.43482 1.940883,-0.83193 4.007142,-1.91863 4.59175,-2.41493 0.585027,-0.49632 2.475108,-1.45026 4.201063,-2.12 3.453417,-1.34011 8.1918,-5.78214 9.362273,-8.77665 0.412615,-1.05473 0.739862,-6.23686 0.728145,-11.51583 -0.0251,-10.515 -1.504415,-21.3185 -5.191508,-37.87911 -2.005914,-9.00959 -2.213059,-11.092 -2.256161,-22.67579 -0.0251,-7.36481 0.410941,-16.57191 1.037313,-21.78693 1.052128,-8.76093 1.036728,-9.31374 -0.513886,-18.42409 -3.612102,-21.22727 -4.675613,-31.74093 -5.045712,-49.88288 -0.259453,-12.72413 -0.09123,-19.91276 0.589213,-25.15591 0.523929,-4.03744 0.878126,-9.19956 0.786731,-11.47129 -0.09123,-2.27182 0.480409,-6.89555 1.27166,-10.27498 0.790916,-3.37941 1.619831,-6.94156 1.841789,-7.91593 1.504497,-6.6031 3.19438,-20.35132 3.571008,-29.053244 0.428518,-9.887951 -1.061084,-29.553741 -2.540809,-33.553688 -0.447768,-1.210394 -0.600091,-1.059159 -1.011535,1.006518 -0.266987,1.337021 -2.043075,7.373514 -3.947887,13.414533 -1.90481,6.040919 -3.997181,13.478211 -4.64975,16.527301 -1.719091,8.03194 -3.762754,13.50901 -10.094101,27.0526 -9.656461,20.65631 -11.043868,24.26716 -11.570812,30.11441 -0.263639,2.92404 -0.990696,7.57221 -1.616063,10.32937 -0.625201,2.75715 -1.289403,7.85919 -1.475541,11.33789 -0.349845,6.53907 -1.10427,8.0861 -3.495599,7.16845 -0.867497,-0.3331 -1.159257,-1.37175 -1.159257,-4.12824 0,-5.25435 -0.643614,-3.91064 -1.050538,2.19356 -0.364073,5.46469 -1.123603,7.11432 -3.274393,7.11432 -1.578569,0 -2.627349,-3.2518 -1.433861,-4.44529 0.59256,-0.59255 0.798449,-0.21258 0.798449,1.46909 0,2.36581 0.743211,2.89108 1.954861,1.38181 0.574145,-0.7156 1.776423,-9.95181 1.913683,-14.70377 0.01674,-0.58501 0.323899,-1.06292 0.682112,-1.06292 0.358214,0 0.783384,2.39157 0.945,5.31462 0.296278,5.37597 1.132892,7.55538 2.222516,5.79244 0.315528,-0.51054 0.776688,-4.49349 1.02476,-8.85182 0.248572,-4.35833 0.665373,-8.69153 0.926083,-9.62942 0.359051,-1.28932 0.251084,-1.56711 -0.441909,-1.13893 -0.503844,0.31135 -0.220118,-0.37579 0.631895,-1.52726 1.092804,-1.47814 1.726207,-3.74701 2.154809,-7.71875 0.843642,-7.81787 1.788056,-10.36286 11.028301,-29.7182 2.604836,-5.45632 5.536248,-11.99331 6.514221,-14.52666 2.31927,-6.007799 4.420846,-13.525019 3.64759,-13.047028 -0.885743,0.547354 -0.783385,0.08368 1.062924,-4.829358 0.918803,-2.444741 3.384537,-10.184834 5.479335,-17.200133 3.432409,-11.494981 3.809872,-13.420135 3.821088,-19.486923 0.0068,-3.702488 -0.233508,-8.007335 -0.533973,-9.566319 -0.341475,-1.774079 -0.30465,-2.436858 0.0996,-1.771569 0.354868,0.585028 1.157752,3.563308 1.783705,6.619176 0.626038,3.055952 1.77927,6.456553 2.562737,7.556802 1.600245,2.247383 6.638001,4.95106 9.255976,4.967541 0.94877,0.0059 2.203273,0.315538 2.787884,0.688812 0.72982,0.465339 0.173244,0.552391 -1.771494,0.278702 -4.288603,-0.603436 -7.109036,-1.59606 -9.878833,-3.475681 l -2.508085,-1.70202 -0.437723,1.743703 c -0.24104,0.959063 0.301302,6.607373 1.203616,12.55188 3.039044,20.012696 1.954274,44.073125 -2.7395,60.765635 -1.929,6.8599 -2.456193,13.9721 -1.339536,18.06972 0.397552,1.45839 0.359051,1.81209 -0.121353,1.12654 -1.300031,-1.85383 -1.895354,6.79677 -1.848818,26.86379 0.04185,18.57607 0.168226,20.34821 2.676644,37.91099 1.447334,10.1332 2.875421,20.17784 3.173624,22.32141 0.353192,2.54157 0.09122,8.0882 -0.753254,15.94388 -1.544922,14.36572 -1.262284,26.13673 0.901646,37.55665 4.461438,23.54402 5.524528,31.32061 5.667145,41.45404 0.07532,5.65125 0.107969,10.83113 0.06696,11.5109 -0.140613,2.125 -6.043774,7.39368 -11.141459,9.94335 -10.647492,5.32534 -12.324401,6.26098 -12.324401,6.87613 0,1.04418 1.663937,1.75441 1.96867,0.8403 0.153999,-0.46368 0.970359,-1.17508 1.813333,-1.58184 1.312837,-0.63357 1.370085,-0.60678 0.399225,0.18498 -1.731311,1.41293 -1.819611,2.02122 -0.407594,2.8112 0.711406,0.39839 1.348992,0.61517 1.417205,0.48126 1.101926,-2.1513 1.815926,-3.05001 2.642161,-3.32545 0.685462,-0.22848 0.613484,0.0502 -0.227649,0.8942 -1.661092,1.66117 -1.543165,2.88319 0.36742,3.80444 1.473616,0.71056 1.487007,0.76915 0.177434,0.775 -0.7792,0.003 -1.895606,-0.24439 -2.480214,-0.5507 z m 17.434975,-24.67811 c -0.235183,-0.23517 -0.403409,0.18331 -0.372441,0.93003 0.03347,0.82523 0.201704,0.99345 0.427679,0.42852 0.205053,-0.51137 0.179944,-1.12267 -0.05859,-1.35812 z m 74.507996,24.45339 c 1.90189,-0.91722 2.08241,-3.00749 0.35402,-4.10139 -0.8382,-0.53063 -0.8956,-0.69634 -0.17743,-0.51053 0.58503,0.15064 1.38181,0.88683 1.77158,1.63557 0.98256,1.88765 3.18877,2.16802 3.18877,0.40507 0,-0.75493 -0.52393,-1.57354 -1.16436,-1.81927 -0.64027,-0.24607 -1.00493,-0.60594 -0.81018,-0.80095 0.19502,-0.19503 0.87831,-0.15317 1.51864,0.093 1.56703,0.60093 1.5107,3.77556 -0.0753,4.26651 -0.68211,0.21092 -1.79384,0.67961 -2.47059,1.04066 -0.6771,0.36157 -1.79282,0.63526 -2.48014,0.60931 -1.00525,-0.0419 -0.93779,-0.19836 0.34483,-0.81686 z m 7.26337,-2.66886 c 1.41737,-0.90357 0.17242,-2.95317 -2.18007,-3.59 -0.9446,-0.25529 -3.1523,-1.42315 -4.90612,-2.59438 -1.75382,-1.17131 -4.06037,-2.33852 -5.12572,-2.59386 -2.40162,-0.57583 -9.10182,-6.3697 -10.25472,-8.86791 -0.46952,-1.01764 -0.84581,-2.48791 -0.8361,-3.26736 l 0.0168,-1.41728 0.55907,1.41728 c 0.30801,0.7792 0.40174,-2.45945 0.21008,-7.19759 -0.385,-9.49752 0.38416,-15.78962 4.53324,-37.09096 3.23708,-16.61786 3.6517,-25.41435 2.01773,-42.80421 -1.44375,-15.36571 -1.73718,-11.12791 3.04599,-44.00133 1.65448,-11.37068 1.86021,-14.98538 1.89552,-33.30493 0.0335,-18.24882 -0.59843,-29.32601 -1.52978,-26.75029 -0.17659,0.4871 -0.59591,0.88581 -0.9337,0.88581 -0.33729,0 -0.15149,-1.10585 0.41346,-2.45745 1.48591,-3.55609 1.25316,-8.3539 -0.75744,-15.61225 -2.33501,-8.43058 -4.5576,-24.01239 -5.05375,-35.430881 -0.32808,-7.540242 -0.0669,-11.751011 1.44716,-23.202802 1.01615,-7.694985 1.84758,-14.949494 1.84758,-16.121049 0,-2.320691 -0.75829,-2.715064 -2.10368,-1.093977 -1.07924,1.300454 -8.05152,3.948049 -10.1465,3.852976 -1.02928,-0.05024 -0.7139,-0.274517 0.91872,-0.662024 4.46999,-1.062179 8.15532,-3.601644 9.73371,-6.707224 0.39588,-0.779198 1.13038,-3.740827 1.63156,-6.580844 0.50134,-2.840016 1.36229,-5.709913 1.91377,-6.377547 0.92599,-1.121176 0.96424,-1.105607 0.50132,0.203378 -1.27099,3.590678 -1.85885,8.925642 -1.48508,13.47897 0.40928,4.984361 4.81581,21.458938 8.86337,33.135875 1.18655,3.423127 2.00131,6.630391 1.81057,7.127288 -0.65868,1.717002 3.82268,13.639911 10.29941,27.401031 8.29441,17.62304 10.65962,23.92659 10.65962,28.4092 0,1.93461 0.50636,4.70299 1.12502,6.15199 1.3721,3.21306 1.59825,4.75621 2.15173,14.68109 0.41595,7.45478 1.10461,10.00772 2.47243,9.16232 0.34565,-0.21341 0.62853,-1.9639 0.62853,-3.88955 0,-1.92574 0.31052,-3.5013 0.69132,-3.5013 0.44443,0 0.45029,-0.63273 0.0168,-1.77147 -0.5574,-1.46618 -0.46283,-1.77032 0.54905,-1.76438 1.05873,0.006 1.24856,0.91889 1.41637,6.80959 0.19584,6.88456 0.9855,9.80175 2.51142,9.28234 1.34757,-0.45864 1.14151,-14.54164 -0.22513,-15.40572 -0.92307,-0.58334 -0.91111,-0.67289 0.0912,-0.6821 0.77752,-0.007 1.67028,1.43326 2.738,4.418 0.87133,2.43585 1.99486,5.38543 2.49661,6.55464 0.50217,1.16922 1.02718,2.76001 1.16754,3.53493 0.32892,1.81635 2.71907,2.3664 2.71907,0.62604 0,-0.69216 -0.6888,-4.06564 -1.53027,-7.49746 -1.37243,-5.59618 -1.42475,-8.00358 -0.14654,-6.72496 0.2469,0.24689 1.32463,2.93098 2.39434,5.96416 1.2145,3.44397 2.37627,5.60087 3.09369,5.74391 1.41663,0.28288 1.44391,-0.84064 0.12884,-5.28517 -1.89661,-6.40842 -4.48672,-17.97397 -4.02522,-17.97397 0.25193,0 2.11564,1.11608 4.14114,2.48013 3.39475,2.28621 7.28187,3.29448 7.28187,1.88899 0,-0.32557 -1.59582,-2.10217 -3.54623,-3.9488 -1.95043,-1.84664 -4.32578,-4.37081 -5.27856,-5.60915 -0.95278,-1.23844 -3.64892,-3.52714 -5.99145,-5.08615 -4.78467,-3.18424 -4.35113,-2.09586 -7.19768,-18.0697 -0.79845,-4.48194 -2.43744,-11.81614 -3.64183,-16.29815 -2.36822,-8.81391 -8.57335,-23.064131 -9.73144,-22.34836 -0.91159,0.563262 -1.11825,-0.583363 -2.44833,-13.588197 -1.16779,-11.41799 -4.60874,-27.586329 -5.39429,-25.346815 -0.24774,0.70555 -0.30968,-2.389234 -0.13813,-6.878129 0.4779,-12.473126 -1.7072,-21.569836 -6.56729,-27.345701 -3.03452,-3.606327 -9.11118,-7.1663715 -14.3263,-8.3931694 -8.93701,-2.1023323 -9.33891,-2.2528993 -5.18322,-1.941972 4.55409,0.3406377 4.90452,0.5649393 -8.11521,-5.1864867 -5.43238,-2.3996144 -8.6369,-3.4704056 -8.9362,-2.9862316 -0.25694,0.4151265 -0.45949,-0.1481392 -0.45112,-1.2529959 0.009,-1.1043535 -0.0837,-4.1237282 -0.19919,-6.7097314 l -0.21509,-4.701725 -3.14248,2.398777 c -1.72838,1.319283 -3.46179,2.398694 -3.85196,2.398694 -0.39004,0 0.63189,-1.036309 2.27122,-2.302946 1.63924,-1.266722 4.2275,-4.085565 5.75159,-6.264309 2.24687,-3.21179 2.82645,-4.722482 3.06407,-7.985073 0.16152,-2.213143 0.54735,-4.416577 0.85811,-4.896485 0.31052,-0.479571 0.95287,-1.988672 1.42674,-3.352731 l 0.86157,-2.48013 -0.27201,2.48013 c -0.63357,5.785071 -2.57989,13.017227 -4.35012,16.166412 -1.76447,3.138807 -1.86548,3.763507 -1.4044,8.6834241 0.46115,4.9232657 0.65783,5.4111233 2.75422,6.8414673 1.24161,0.8470754 5.60571,2.88889615 9.69798,4.5373494 4.09224,1.6484532 8.62993,3.7376436 10.08371,4.6427204 1.4538,0.9050767 2.89125,1.6456094 3.1944,1.6456094 1.48148,0 7.96574,4.0263074 10.64446,6.6096314 5.06465,4.884013 8.17835,15.761163 7.84473,27.403952 -0.15902,5.54428 0.14138,7.919375 1.70201,13.463741 2.18938,7.77776 4.08741,19.886564 4.08741,26.076465 0,3.886701 0.3172,4.79363 3.43995,9.829628 5.16572,8.331322 10.03659,24.071147 12.56929,40.616607 1.50049,9.80292 2.02257,11.01315 5.88124,13.63305 1.79592,1.21952 4.04915,3.19664 5.00713,4.39381 0.95797,1.1971 3.61194,4.01074 5.89772,6.25259 4.72014,4.62942 5.13133,6.62294 1.32915,6.44434 -1.27483,-0.0586 -3.51259,-0.93688 -4.97273,-1.94875 -1.46022,-1.01186 -2.81332,-1.83978 -3.0069,-1.83978 -0.39588,0 1.80715,9.93441 3.3298,15.01409 1.16378,3.88228 1.28002,6.69368 0.30214,7.29829 -1.48935,0.92039 -3.26301,-1.11791 -4.56195,-5.24274 -1.85068,-5.87637 -2.21004,-4.95883 -0.56829,1.45077 1.53546,5.99449 1.39971,6.98977 -0.9532,6.98977 -1.2175,0 -1.82396,-0.49797 -2.13999,-1.75683 -0.24272,-0.96625 -1.1976,-3.59703 -2.1225,-5.84608 l -1.6816,-4.08926 -0.0168,4.72524 c -0.0168,5.54621 -0.44358,6.96693 -2.07673,6.96693 -2.02482,0 -2.89667,-1.54231 -2.98421,-5.27922 -0.0502,-1.96816 -0.32726,-4.53508 -0.62436,-5.7043 -0.45028,-1.77089 -0.5549,-1.46524 -0.6252,1.83057 -0.0502,2.17608 -0.25109,4.12341 -0.45447,4.32736 -0.20421,0.20422 -1.16068,0.22013 -2.12584,0.0335 -1.59565,-0.30547 -1.75509,-0.66537 -1.75685,-3.97315 -0.003,-5.35363 -1.39929,-15.81482 -2.54391,-19.05916 -0.5482,-1.55447 -0.99722,-4.52831 -0.99722,-6.60837 0,-4.88838 -1.47931,-8.75274 -11.23043,-29.33639 -6.48241,-13.6837 -8.83356,-19.9572 -10.36058,-27.644406 -0.65783,-3.312812 -2.92513,-11.378907 -5.03792,-17.924683 -2.11288,-6.545858 -3.87425,-12.445092 -3.91408,-13.109459 -0.15317,-2.55118 -1.30748,4.191945 -2.46006,14.371493 -1.85357,16.371137 -0.3289,35.632075 4.30226,54.349345 1.10821,4.47885 1.75627,9.06198 1.72529,12.20204 -0.0251,2.76596 0.28456,7.2612 0.69384,9.98932 0.40925,2.72819 0.74991,12.68922 0.75743,22.13561 0.0168,17.91471 -1.23223,31.33659 -5.05325,54.39495 -1.45177,8.76092 -1.47788,9.69788 -0.5323,19.13263 0.54653,5.45641 0.96903,15.34161 0.93863,21.96715 -0.0502,11.22683 -0.25358,13.01079 -2.97242,26.21883 -3.76526,18.29251 -4.64614,25.87877 -4.29889,37.02283 l 0.28288,9.07964 3.07421,3.07419 c 1.91811,1.91812 5.77427,4.4011 10.2538,6.60243 3.94862,1.94055 7.65774,3.76853 8.24234,4.06221 0.58502,0.29379 1.16387,1.3788 1.28715,2.41126 0.18579,1.55714 -0.0586,1.87535 -1.41721,1.86632 -1.31435,-0.009 -1.42966,-0.14566 -0.57833,-0.68882 z m -24.40559,-6.05516 c -0.7566,-0.57247 -1.03471,-1.04034 -0.6185,-1.04034 0.41679,0 1.15433,0.47791 1.63951,1.06294 1.10343,1.32956 0.75659,1.32187 -1.02126,-0.0251 z M 87.500748,279.59659 c -0.121354,-7.11079 0.90951,-12.86456 3.150785,-17.57842 1.892584,-3.98054 1.837936,-3.2944 -0.331438,4.16172 -0.793431,2.7282 -1.730813,8.14911 -2.082322,12.04645 l -0.639434,7.08619 z m 42.555642,0.0502 c -0.16237,-5.8367 -1.49881,-12.86146 -3.33976,-17.55257 -1.38088,-3.51844 -1.33652,-4.98343 0.0669,-2.28863 2.49001,4.77345 3.90487,12.07373 3.66274,18.89847 l -0.23434,6.61172 -0.15735,-5.66899 z m -40.241641,-29.0861 c 1.15147,-1.15147 3.257071,-7.42773 3.257071,-9.7086 0,-0.734 -0.337301,-1.96557 -0.749916,-2.73615 -0.610129,-1.14009 -0.445255,-1.6477 0.885753,-2.72687 1.851074,-1.50072 2.644835,-1.31951 1.302867,0.29712 -0.48877,0.58923 -0.686293,1.59825 -0.439391,2.24269 1.110205,2.89307 -2.506909,13.7273 -4.58296,13.7273 -0.423503,0 -0.276196,-0.49296 0.326402,-1.09582 z m 37.448671,0.22683 c -1.35704,-1.67282 -3.01252,-7.65993 -3.01252,-10.8949 0,-1.76588 -0.36491,-3.90714 -0.81184,-4.75839 l -0.81185,-1.54784 1.69751,1.40965 c 0.93361,0.77503 1.7786,1.44115 1.87778,1.47957 0.0996,0.0419 -0.16656,1.06469 -0.59005,2.28076 -0.60428,1.73367 -0.51389,3.09697 0.41847,6.31528 0.65366,2.25734 1.523,4.51065 1.93142,5.00721 0.40844,0.49632 0.58336,1.06234 0.38835,1.25719 -0.19501,0.195 -0.68379,-0.0503 -1.08685,-0.54819 z m -50.114717,-1.19176 c -0.544017,-1.71349 -1.677999,-14.4557 -1.325057,-14.88739 0.810166,-0.99129 1.349913,1.68536 1.677579,8.32329 0.400898,8.11756 0.363235,8.819 -0.352355,6.5641 z m 63.564807,-1.48275 c 0,-1.36405 0.14565,-1.92214 0.3239,-1.24009 0.17826,0.68211 0.17826,1.79817 0,2.48021 -0.17827,0.68211 -0.3239,0.12382 -0.3239,-1.24012 z m 0.64781,-7.53086 c -0.0837,-3.97557 0.15147,-5.2577 1.09497,-6.02325 1.03221,-0.83721 1.11079,-0.82607 0.56494,0.0753 -0.349,0.5775 -0.84139,3.28821 -1.09506,6.02328 l -0.46117,4.97288 z M 18.670695,182.38887 c 0.0022,-1.07179 0.343986,-3.17437 0.759949,-4.6725 1.139088,-4.10231 0.262802,-3.91576 -1.116657,0.23769 -1.001408,3.01519 -1.461981,3.59234 -2.722258,3.4119 -2.016125,-0.28874 -2.264699,-2.12082 -0.935374,-6.89361 0.605951,-2.17406 1.609954,-6.18505 2.232058,-8.91324 0.621853,-2.72812 1.306644,-5.54537 1.52132,-6.26047 0.377465,-1.25777 0.324737,-1.25835 -1.625186,-0.0168 -1.108537,0.70555 -2.250638,1.6539 -2.537962,2.10694 -1.156829,1.82388 -6.9180482,1.96683 -6.9180482,0.17157 0,-1.16109 12.0902232,-13.91134 15.0457392,-15.86721 3.433749,-2.2724 4.454156,-4.61475 5.854203,-13.43879 1.49613,-9.42915 5.73251,-26.58391 7.854679,-31.80672 0.937966,-2.308294 3.100808,-6.459662 4.806259,-9.225106 2.928985,-4.74943 3.125918,-5.401476 3.552176,-11.760116 0.609299,-9.087836 2.236828,-18.772589 4.445118,-26.448585 1.49002,-5.179029 1.749138,-7.228049 1.395779,-11.036918 -0.522256,-5.630068 0.348169,-12.092566 2.521306,-18.721783 2.557046,-7.799606 5.714768,-10.618951 19.008858,-16.9716397 6.040926,-2.8867208 12.41847,-5.77745584 14.172303,-6.42391456 6.140098,-2.26302464 7.533784,-3.51535214 8.042487,-7.22629734 0.799282,-5.8341994 0.540665,-8.8631174 -0.91521,-10.7142794 -0.756596,-0.962156 -1.753904,-3.563476 -2.215734,-5.780635 -0.461993,-2.217244 -1.277515,-5.603872 -1.812666,-7.52584 -1.153976,-4.144485 -1.231144,-5.606385 -0.264469,-5.008887 0.390013,0.241042 0.708896,1.356945 0.708896,2.480213 0,1.123185 0.317204,2.238168 0.704711,2.477787 0.387507,0.239367 1.057224,1.094059 1.487919,1.898868 0.599264,1.120005 0.582524,1.339285 -0.07531,0.934704 -0.590883,-0.364908 -0.733993,-0.118004 -0.462832,0.800123 0.215941,0.730656 0.605954,2.534279 0.867497,4.007559 0.588376,3.317079 5.811778,10.207591 9.381934,12.375707 1.44065,0.874945 2.28321,1.5923775 1.87235,1.5943861 -0.41094,0.00192 -2.20385,-0.9203081 -3.98446,-2.0495181 l -3.2374,-2.053036 -0.438566,3.647422 c -0.241038,2.0061658 -0.446093,4.9230148 -0.455302,6.4819985 -0.0081,1.8233751 -0.230991,2.4971196 -0.616831,1.8888247 -0.477055,-0.7532539 -1.449008,-0.5247655 -4.772278,1.11975325 -2.295081,1.13590721 -6.86557,3.15588185 -10.156701,4.48872225 l -5.983848,2.4233008 2.795074,0.4310296 c 2.417359,0.3724408 2.507832,0.4452546 0.669559,0.5389935 -7.754243,0.3950396 -17.028386,5.9170574 -21.137802,12.5865344 -3.369221,5.468202 -4.33238,10.270863 -4.352132,21.700398 -0.0084,5.750503 -0.148141,10.065147 -0.307161,9.588163 -0.15902,-0.477055 -1.031372,1.833427 -1.938624,5.134175 -1.652472,6.011722 -3.312725,16.794543 -4.169341,27.077959 -0.251085,3.017877 -0.747396,6.366079 -1.102847,7.44048 l -0.646125,1.953437 0.284562,-2.112379 c 0.272009,-2.019302 0.236856,-2.05053 -0.796775,-0.708893 -4.578527,5.946262 -10.935318,25.804219 -13.605935,42.503509 -1.788225,11.18187 -1.845641,11.30392 -6.852182,14.56583 -2.500217,1.62896 -4.545885,3.1779 -4.545885,3.44212 0,0.26448 -2.232141,2.79816 -4.960343,5.63107 -2.728117,2.83291 -4.9602595,5.28977 -4.9602595,5.45968 0,1.17757 4.3975795,-0.12058 7.5924635,-2.24119 2.112959,-1.40248 3.988478,-2.40339 4.167752,-2.22411 0.179106,0.17912 0.0069,1.16461 -0.382487,2.18962 -0.390017,1.02501 -0.523928,2.34471 -0.29879,2.93275 0.225977,0.58837 0.09876,1.06905 -0.28205,1.06905 -0.380813,0 -1.081925,1.99293 -1.558316,4.42887 -0.476224,2.43586 -1.277266,6.02318 -1.779854,7.97193 -0.50217,1.94867 -0.773341,3.78218 -0.601766,4.07452 0.482083,0.82104 2.35442,0.62771 2.35442,-0.24271 0,-2.02064 3.748272,-11.036 4.588403,-11.036 0.519743,0 0.834437,0.34565 0.698852,0.76748 -0.13558,0.42265 -0.944079,3.58005 -1.796343,7.01747 -1.152227,4.64691 -1.344223,6.45513 -0.748232,7.05071 1.113058,1.11306 1.723361,0.24104 3.605992,-5.15142 0.884404,-2.53327 2.050023,-5.61081 2.590272,-6.83895 0.539831,-1.22814 0.982243,-2.58333 0.982243,-3.0116 0,-0.42852 0.558244,-0.77418 1.240022,-0.76748 0.918802,0.009 1.002833,0.16154 0.3239,0.59173 -0.503844,0.31971 -1.180767,2.62659 -1.504498,5.12664 -0.396715,3.06398 -0.626038,3.73713 -0.703874,2.06535 -0.113827,-2.44416 -0.136422,-2.42357 -1.56953,1.41727 -0.800122,2.14351 -1.637154,4.5351 -1.860954,5.31462 -0.88792,3.0927 -4.430639,3.51821 -4.424613,0.53148 z m 2.769881,-11.86935 c 0.0251,-0.39001 -0.270335,-0.23015 -0.647798,0.35404 -0.377465,0.58503 -0.669559,1.54125 -0.647798,2.12584 0.04185,1.12235 1.222111,-1.13783 1.295931,-2.48012 z m 173.154914,-4.3255 c 0.2352,-0.2352 0.84666,-0.2603 1.35821,-0.0586 0.56494,0.22596 0.39755,0.3942 -0.42851,0.42851 -0.74741,0.0335 -1.16547,-0.13636 -0.93003,-0.37244 z M 89.996864,128.17973 c -1.367074,-1.67306 -2.992089,-4.84602 -3.656036,-7.13875 -1.690888,-5.83856 -0.942324,-5.68623 0.951439,0.19333 1.143695,3.55102 2.248711,5.48286 4.031664,7.04829 2.521981,2.21438 2.950321,2.90846 1.794923,2.90846 -0.363236,0 -1.768474,-1.35526 -3.12199,-3.01159 z m 36.616486,0.29711 c 1.68001,-1.72043 3.3052,-4.50964 4.43859,-7.61756 1.37376,-3.76694 1.6831,-4.24642 1.33476,-2.06895 -0.63357,3.96145 -2.61613,8.15616 -4.93991,10.45215 -3.05085,3.01435 -3.8277,2.30078 -0.8336,-0.7658 z m -18.66093,-19.94179 c 0,-0.35487 0.30465,-0.83278 0.67793,-1.06343 0.37245,-0.23016 0.49799,-0.88691 0.27871,-1.45906 -0.21929,-0.57247 -0.0502,-1.04024 0.38498,-1.04024 1.18488,0 0.94065,3.33156 -0.2787,3.79932 -0.58503,0.22431 -1.06292,0.11807 -1.06292,-0.23685 z m 2.83441,-95.468877 c 0,-1.754161 2.04349,-3.1630793 4.9852,-3.4371812 l 3.16392,-0.2946051 -2.83449,0.7038723 c -1.5589,0.387509 -3.39249,1.373434 -4.07453,2.191801 -0.68211,0.818536 -1.2401,1.194661 -1.2401,0.836113 z m -4.47709,-1.196419 c -0.22011,-0.574147 -1.77425,-1.326229 -3.45341,-1.67172 L 99.803301,9.5694852 102.06885,9.2129459 c 1.24613,-0.195847 2.10416,-0.095409 1.90689,0.2234648 -0.1975,0.3188773 0.308,0.5800053 1.1226,0.5800053 1.38842,0 2.74896,1.758512 1.96625,2.541309 -0.19501,0.195011 -0.53481,-0.115495 -0.75494,-0.689644 z m -1.84446,-8.7030915 c -0.0335,-0.4553003 -0.23938,-1.4119321 -0.46367,-2.125849 -0.38751,-1.23382994 -0.36742,-1.23533671 0.40425,-0.033486 0.44693,0.6963417 0.65532,1.6533912 0.46366,2.1258489 -0.25191,0.6201795 -0.36407,0.6285486 -0.40424,0.033486 z m 8.4474,-0.033486 c 0,-1.0030836 2.05973,-5.8735368 2.48399,-5.8735368 0.18662,0 -0.18833,1.3551867 -0.83362,3.01159145 -1.30587,3.35440595 -1.65062,3.95207085 -1.65062,2.86194535 z M 100.83377,-5.635533 c -0.43523,-0.8126764 -0.65785,-1.6113756 -0.49466,-1.774497 0.16321,-0.1632056 0.66036,0.5021682 1.1052,1.4778834 0.97647,2.1432574 0.50133,2.3741705 -0.61097,0.2962801 z m 15.67887,0.058589 c 1.03305,-2.1690364 1.36039,-2.5711051 1.36039,-1.6707169 0,0.3799747 -0.49632,1.3102431 -1.10201,2.0667615 -1.03907,1.2970186 -1.05389,1.2744199 -0.25862,-0.3958779 z M 87.721365,-29.270195 c -0.621843,-0.949435 -1.44641,-4.001954 -1.83183,-6.783385 -0.748226,-5.397815 -0.222621,-7.079997 2.210047,-7.079997 1.049122,0 1.285813,-0.921063 1.592888,-6.200366 0.573304,-9.852055 3.21739,-14.093375 10.062293,-16.139379 6.919807,-2.068434 19.304477,-0.95998 24.055557,2.15305 2.92498,1.916528 3.92228,4.557352 4.73739,12.543764 0.40926,4.008734 1.05029,7.396783 1.42483,7.529022 2.31733,0.818536 2.86988,2.468161 2.38413,7.119587 -0.45949,4.397828 -2.10577,9.151528 -2.89602,8.361282 -0.195,-0.19501 0.1766,-1.380631 0.82524,-2.635133 0.72898,-1.409003 1.08718,-3.439691 0.93805,-5.312782 -0.13311,-1.667621 -0.003,-2.884292 0.28958,-2.703594 0.64194,0.396714 0.68965,-0.643613 0.10124,-2.177321 -0.47957,-1.250401 -2.78495,-1.516217 -3.47443,-0.400898 -0.24523,0.395876 -0.77585,0.515559 -1.18036,0.265312 -0.49045,-0.302976 -0.4578,-0.626037 0.0996,-0.970274 1.22573,-0.757438 -0.26029,-15.717976 -1.79366,-18.058335 -0.63525,-0.969354 -2.81717,-2.575793 -4.84887,-3.569836 -3.11092,-1.521991 -4.70824,-1.812078 -10.11944,-1.837772 -3.53393,-0.01674 -7.65984,0.195009 -9.16852,0.470365 -3.250621,0.593397 -6.853354,2.929738 -6.185058,4.011076 0.274528,0.443582 0.141439,0.559918 -0.315526,0.277029 -1.418538,-0.876703 -2.833988,3.339509 -3.546649,10.564633 -0.468696,4.75303 -0.460327,7.528184 0.02506,8.48172 0.59256,1.163693 0.554058,1.258771 -0.215943,0.531463 -1.388079,-1.312085 -1.920538,-1.106196 -3.115615,1.20487 -1.478221,2.858597 -1.356022,6.275105 0.337289,9.434836 1.592877,2.972088 1.341207,3.56448 -0.390853,0.920644 z m 0.367421,-13.058573 c -0.05024,-0.967178 -2.103082,2.366138 -2.098979,3.405208 0.0024,0.607625 0.480411,0.191662 1.062925,-0.925079 0.582513,-1.116321 1.048446,-2.232392 1.036054,-2.480129 z m 41.476564,2.029684 c -0.24104,-0.390019 -0.1005,-0.708896 0.31219,-0.708896 0.41261,0 0.75073,0.318877 0.75073,0.708896 0,0.908006 -0.50215,0.908006 -1.06292,0 z m -7.34471,-5.171505 c -0.78171,-2.529927 -1.63072,-5.719121 -1.8874,-7.087196 -0.41598,-2.218416 -0.78506,-2.558634 -3.41199,-3.14659 -3.35808,-0.75158 -14.3345,-0.513051 -16.70281,0.363234 -1.209391,0.446931 -2.087277,2.114383 -3.751888,7.124776 -1.195155,3.597456 -2.321351,6.392612 -2.502557,6.211412 -0.181613,-0.180781 0.31302,-2.34287 1.098082,-4.803582 1.987838,-6.230245 2.363041,-8.216657 1.603765,-8.490005 -0.359885,-0.129721 -0.862656,-1.192484 -1.116407,-2.3617 l -0.461166,-2.12585 0.97622,1.77157 c 0.704716,1.278689 1.459064,1.709801 2.711961,1.549525 0.954715,-0.122195 4.1275,-0.212585 7.05055,-0.200868 2.92304,0.0084 6.35443,-0.261964 7.62544,-0.608461 1.27099,-0.346497 2.14651,-0.364073 1.94572,-0.04185 -0.20086,0.324736 0.91261,0.806819 2.47453,1.070624 2.3237,0.392528 2.91525,0.822721 3.25556,2.365803 0.22849,1.037313 1.03555,4.240398 1.79299,7.117911 1.72202,6.542009 1.21207,7.480562 -0.70053,1.288818 z"
       id="path384" />
  </g>
</svg>
